<svg xmlns="http://www.w3.org/2000/svg" width="178" height="56" fill="none" viewBox="0 0 178 56"><g filter="url(#filter0_d)"><path fill="#000" d="M30.1016 0.703125C31.1953 0.703125 32.0859 1.01562 32.7734 1.64062C33.4922 2.23437 33.8047 3.32812 33.7109 4.92188C33.6797 5.45313 33.5547 6.45312 33.3359 7.92188C33.1172 9.35938 32.8516 11.0625 32.5391 13.0312C32.2266 15 31.8672 17.125 31.4609 19.4062C31.0859 21.6562 30.7266 23.8594 30.3828 26.0156H31.3672C31.6797 26.0156 32.0234 26 32.3984 25.9688C32.7734 25.9375 33.1641 25.8906 33.5703 25.8281C33.4141 26.2031 33.2422 26.5625 33.0547 26.9062C32.8672 27.2188 32.6797 27.5 32.4922 27.75C32.2734 28.0312 32.0547 28.2812 31.8359 28.5C31.5547 28.8438 31.2266 29.1562 30.8516 29.4375C30.4766 29.6875 30.1172 29.8906 29.7734 30.0469C29.5547 31.5781 29.3672 32.9531 29.2109 34.1719C29.0859 35.3594 29.0078 36.3438 28.9766 37.125C28.9141 38.3125 28.9453 39.4219 29.0703 40.4531C29.1641 41.3594 29.3516 42.2812 29.6328 43.2188C29.9141 44.1562 30.3672 44.9062 30.9922 45.4688L25.5547 47.25C25.1797 46.7188 24.8984 46 24.7109 45.0938C24.5547 44.2188 24.4453 43.3438 24.3828 42.4688C24.2891 41.4375 24.2734 40.375 24.3359 39.2812C24.3984 38.1875 24.5703 36.7656 24.8516 35.0156C25.1328 33.2344 25.4453 31.2969 25.7891 29.2031C25.1641 29.0156 24.4766 28.8594 23.7266 28.7344C23.0078 28.6094 22.1953 28.5469 21.2891 28.5469C20.4766 28.5469 19.6172 28.5781 18.7109 28.6406C17.8359 28.7031 16.9609 28.7812 16.0859 28.875C15.7109 30.25 15.3359 31.7031 14.9609 33.2344C14.5547 34.8906 14.1797 36.2969 13.8359 37.4531C13.5234 38.6406 13.2109 39.625 12.8984 40.4062C12.6172 41.1875 12.3203 41.8125 12.0078 42.2812C11.7266 42.75 11.4141 43.0938 11.0703 43.3125C10.6953 43.5 10.2266 43.6719 9.66406 43.8281C9.13281 43.9844 8.46094 44.1406 7.64844 44.2969C6.83594 44.4531 5.78906 44.5781 4.50781 44.6719C4.97656 44.1094 5.38281 43.5938 5.72656 43.125C6.07031 42.6562 6.41406 42.0781 6.75781 41.3906C7.10156 40.7031 7.49219 39.8125 7.92969 38.7188C8.33594 37.6562 8.86719 36.25 9.52344 34.5C9.80469 33.7812 10.0859 33 10.3672 32.1562C10.6797 31.2812 11.0078 30.3906 11.3516 29.4844C10.2266 29.6406 9.27344 29.7812 8.49219 29.9062C7.71094 30.0312 7.24219 30.125 7.08594 30.1875C6.83594 30.2188 6.63281 30.2188 6.47656 30.1875C6.07031 30.125 5.85156 29.9219 5.82031 29.5781C5.85156 29.1406 6.00781 28.8438 6.28906 28.6875C6.53906 28.5312 6.92969 28.3438 7.46094 28.125C7.71094 28 8.28906 27.7812 9.19531 27.4688C10.0703 27.125 11.1484 26.7656 12.4297 26.3906C12.8984 25.0781 13.3516 23.7812 13.7891 22.5C14.2578 21.1875 14.7109 19.9375 15.1484 18.75C15.5859 17.5625 16.0078 16.4531 16.4141 15.4219C16.8203 14.3594 17.1953 13.4531 17.5391 12.7031C18.0703 11.5469 18.7422 10.2812 19.5547 8.90625C20.3984 7.5 21.3516 6.1875 22.4141 4.96875C23.5078 3.75 24.6953 2.73438 25.9766 1.92188C27.2891 1.10937 28.6641 0.703125 30.1016 0.703125ZM29.5859 10.4531C29.9297 9.04688 30.1641 7.89062 30.2891 6.98438C30.4141 6.07812 30.4609 5.375 30.4297 4.875C30.3984 4.34375 30.2891 3.98438 30.1016 3.79688C29.9453 3.57813 29.7422 3.46875 29.4922 3.46875C29.0859 3.46875 28.5859 3.625 27.9922 3.9375C27.3984 4.25 26.7734 4.70313 26.1172 5.29688C25.4609 5.85938 24.8047 6.57813 24.1484 7.45312C23.5234 8.29688 22.9609 9.26562 22.4609 10.3594C21.7422 11.9844 20.9297 13.9844 20.0234 16.3594C19.1172 18.7031 18.1328 21.7031 17.0703 25.3594C17.6953 25.2656 18.3047 25.1875 18.8984 25.125C19.5234 25.0625 20.1328 25.0312 20.7266 25.0312C21.7891 25.0312 22.8047 25.0781 23.7734 25.1719C24.7422 25.2344 25.6328 25.3125 26.4453 25.4062C26.7266 23.9062 27.0078 22.4375 27.2891 21C27.6016 19.5312 27.8984 18.1406 28.1797 16.8281C28.4609 15.5156 28.7109 14.3125 28.9297 13.2188C29.1797 12.125 29.3984 11.2031 29.5859 10.4531ZM58.1797 33.8438C58.1797 33.1875 58.2422 32.4375 58.3672 31.5938C58.5234 30.75 58.7109 29.8906 58.9297 29.0156C59.1484 28.1094 59.3672 27.2344 59.5859 26.3906C59.8047 25.5469 59.9922 24.7969 60.1484 24.1406C60.3359 23.3281 60.3203 22.7031 60.1016 22.2656C59.8828 21.8281 59.5078 21.6094 58.9766 21.6094C58.7266 21.6094 58.2266 21.8281 57.4766 22.2656C56.7578 22.7031 55.9609 23.4688 55.0859 24.5625C54.2422 25.625 53.3984 27.0781 52.5547 28.9219C51.7422 30.7344 51.1016 33.0469 50.6328 35.8594C50.0391 36.1719 49.4766 36.375 48.9453 36.4688C48.6641 36.5312 48.4141 36.5781 48.1953 36.6094C47.5703 36.6406 47.1641 36.5312 46.9766 36.2812C46.7891 36.0625 46.8203 35.5 47.0703 34.5938C47.1953 34.1562 47.4141 33.4531 47.7266 32.4844C48.0703 31.5156 48.3984 30.4688 48.7109 29.3438C49.0234 28.1875 49.2891 27.0469 49.5078 25.9219C49.7578 24.7656 49.8828 23.7656 49.8828 22.9219C49.8828 22.3281 49.7734 21.9219 49.5547 21.7031C49.3672 21.4844 49.0859 21.375 48.7109 21.375C48.4297 21.375 47.9609 21.5312 47.3047 21.8438C46.6484 22.1562 45.9141 22.7656 45.1016 23.6719C44.2891 24.5781 43.4766 25.8438 42.6641 27.4688C41.8828 29.0625 41.2109 31.1406 40.6484 33.7031V33.6094C40.5859 33.8594 40.5234 34.1094 40.4609 34.3594C40.3984 34.5781 40.3516 34.8125 40.3203 35.0625C40.2891 35.3125 40.2422 35.5469 40.1797 35.7656L37.8359 36.7969C37.6797 36.8594 37.4766 36.9062 37.2266 36.9375C37.0078 36.9688 36.7891 36.9219 36.5703 36.7969C36.3828 36.7031 36.2422 36.4844 36.1484 36.1406C36.0547 35.7969 36.0859 35.2812 36.2422 34.5938L39.1953 22.3594C39.2891 21.9531 39.3672 21.5625 39.4297 21.1875C39.4922 20.8438 39.5234 20.5156 39.5234 20.2031C39.5547 19.8594 39.5391 19.5781 39.4766 19.3594C40.0078 19.1094 40.4766 18.9219 40.8828 18.7969C41.2891 18.6719 41.6172 18.5781 41.8672 18.5156C42.1797 18.4219 42.4453 18.375 42.6641 18.375C43.6641 18.375 43.9922 19.2344 43.6484 20.9531C43.5234 21.4531 43.3359 22.1875 43.0859 23.1562C43.6797 22.4062 44.3047 21.7031 44.9609 21.0469C45.6484 20.3594 46.3359 19.75 47.0234 19.2188C47.7109 18.6875 48.3984 18.2656 49.0859 17.9531C49.8047 17.6406 50.5078 17.4844 51.1953 17.4844C51.7266 17.4844 52.1641 17.6406 52.5078 17.9531C52.8828 18.2656 53.1641 18.6875 53.3516 19.2188C53.5703 19.7188 53.6953 20.3281 53.7266 21.0469C53.7578 21.7344 53.7266 22.4531 53.6328 23.2031C54.1328 22.5469 54.6797 21.8906 55.2734 21.2344C55.8984 20.5469 56.5391 19.9375 57.1953 19.4062C57.8828 18.875 58.5859 18.4375 59.3047 18.0938C60.0234 17.75 60.7422 17.5781 61.4609 17.5781C62.3047 17.5781 62.9453 17.8281 63.3828 18.3281C63.8516 18.8281 64.1641 19.4688 64.3203 20.25C64.5078 21.0312 64.5547 21.875 64.4609 22.7812C64.3984 23.6875 64.2734 24.5625 64.0859 25.4062L62.4922 31.7344C62.1484 33.2969 62.4766 34.0781 63.4766 34.0781C64.2578 34.0781 65.1172 33.7031 66.0547 32.9531C66.9922 32.2031 67.8984 31.3125 68.7734 30.2812C69.6797 29.25 70.5234 28.1875 71.3047 27.0938C72.0859 26 72.7422 25.125 73.2734 24.4688C73.4609 24.25 73.6484 24.125 73.8359 24.0938C74.0547 24.0625 74.2266 24.1094 74.3516 24.2344C74.5078 24.3281 74.5859 24.5 74.5859 24.75C74.6172 25 74.5391 25.3125 74.3516 25.6875C73.7266 26.7812 72.9609 28 72.0547 29.3438C71.1484 30.6562 70.1484 31.8906 69.0547 33.0469C67.9922 34.2031 66.8516 35.1719 65.6328 35.9531C64.4141 36.7344 63.1484 37.125 61.8359 37.125C61.3984 37.125 60.9609 37.0781 60.5234 36.9844C60.1172 36.8906 59.7266 36.7188 59.3516 36.4688C59.0078 36.2188 58.7266 35.8906 58.5078 35.4844C58.2891 35.0469 58.1797 34.5 58.1797 33.8438ZM76.6016 36.75C75.4141 36.75 74.4453 36.5625 73.6953 36.1875C72.9453 35.8125 72.3516 35.3594 71.9141 34.8281C71.5078 34.2656 71.2109 33.6719 71.0234 33.0469C70.8672 32.3906 70.7891 31.7969 70.7891 31.2656C70.7891 30.3281 70.8672 29.3438 71.0234 28.3125C71.1797 27.25 71.3672 26.2812 71.5859 25.4062C71.8047 24.5 71.9922 23.7344 72.1484 23.1094C72.3359 22.4844 72.4609 22.0938 72.5234 21.9375C72.8047 21.0312 73.1641 20.25 73.6016 19.5938C74.0703 18.9062 74.7109 18.4375 75.5234 18.1875C75.8359 18.125 76.1641 18.0625 76.5078 18C76.7891 17.9688 77.0703 17.9531 77.3516 17.9531C77.6641 17.9531 77.9453 18 78.1953 18.0938C77.3516 20.25 76.6797 22.0469 76.1797 23.4844C75.7109 24.9219 75.3516 26.0938 75.1016 27C74.8203 28.0312 74.6484 28.8594 74.5859 29.4844C74.4297 30.8906 74.5547 31.9531 74.9609 32.6719C75.3672 33.3906 76.1953 33.75 77.4453 33.75C78.2578 33.75 79.0391 33.4531 79.7891 32.8594C80.5391 32.2344 81.2266 31.4375 81.8516 30.4688C81.7578 29.9688 81.7109 29.4531 81.7109 28.9219C81.7109 27.9219 81.7891 26.9531 81.9453 26.0156C82.1328 25.0469 82.3359 24.1562 82.5547 23.3438C82.8047 22.5 83.0547 21.75 83.3047 21.0938C83.5859 20.4375 83.8203 19.9219 84.0078 19.5469C84.3516 18.7969 84.6641 18.3438 84.9453 18.1875C85.2266 18 85.6797 17.8906 86.3047 17.8594C86.5547 17.8281 86.7578 17.8281 86.9141 17.8594C87.1016 17.8594 87.2578 17.875 87.3828 17.9062C87.7578 18 87.9453 18.1875 87.9453 18.4688C87.9453 18.9688 87.9141 19.7188 87.8516 20.7188C87.7891 21.7188 87.6016 22.75 87.2891 23.8125C87.0703 24.6875 86.8516 25.4375 86.6328 26.0625C86.4453 26.6562 86.2578 27.1719 86.0703 27.6094C85.8828 28.0156 85.6953 28.3594 85.5078 28.6406C85.3203 28.8906 85.1484 29.125 84.9922 29.3438C85.0547 30.2812 85.1328 31.0312 85.2266 31.5938C85.3203 32.1562 85.4297 32.5938 85.5547 32.9062C85.7109 33.1875 85.8828 33.3906 86.0703 33.5156C86.2891 33.6094 86.5234 33.6562 86.7734 33.6562C87.2109 33.6562 87.7266 33.4531 88.3203 33.0469C88.9141 32.6094 89.5234 32.0781 90.1484 31.4531C90.8047 30.7969 91.4453 30.0938 92.0703 29.3438C92.7266 28.5625 93.3203 27.8281 93.8516 27.1406C94.3828 26.4531 94.8359 25.8594 95.2109 25.3594C95.5859 24.8281 95.8203 24.5 95.9141 24.375C96.1328 24.0938 96.3359 23.9219 96.5234 23.8594C96.7422 23.7969 96.9141 23.8281 97.0391 23.9531C97.1641 24.0469 97.2266 24.2188 97.2266 24.4688C97.2578 24.6875 97.1953 24.9375 97.0391 25.2188C96.4141 26.4062 95.6328 27.6719 94.6953 29.0156C93.7891 30.3281 92.8047 31.5469 91.7422 32.6719C90.7109 33.7969 89.6641 34.7344 88.6016 35.4844C87.5391 36.2344 86.5391 36.6094 85.6016 36.6094C84.7578 36.6094 84.0859 36.3281 83.5859 35.7656C83.1172 35.1719 82.7109 34.3281 82.3672 33.2344C81.6484 34.3594 80.8047 35.2344 79.8359 35.8594C78.8672 36.4531 77.7891 36.75 76.6016 36.75ZM103.602 8.39062C103.508 8.73438 103.32 9.07812 103.039 9.42188C102.789 9.73438 102.492 10 102.148 10.2188C101.836 10.4062 101.508 10.5312 101.164 10.5938C100.82 10.6562 100.539 10.5938 100.32 10.4062C99.6641 9.90625 99.3203 9.375 99.2891 8.8125C99.2578 8.21875 99.3984 7.67188 99.7109 7.17188C100.023 6.64062 100.414 6.20313 100.883 5.85938C101.352 5.48438 101.758 5.26563 102.102 5.20312C102.445 5.14062 102.727 5.21875 102.945 5.4375C103.195 5.625 103.383 5.89062 103.508 6.23438C103.633 6.54687 103.695 6.90625 103.695 7.3125C103.727 7.71875 103.695 8.07812 103.602 8.39062ZM97.1328 18.375C97.2891 18.1875 97.5859 18.0312 98.0234 17.9062C98.4609 17.7812 98.9141 17.6875 99.3828 17.625C99.8516 17.5312 100.273 17.4844 100.648 17.4844C101.055 17.4531 101.289 17.4531 101.352 17.4844C101.383 17.5156 101.305 17.8438 101.117 18.4688C100.93 19.0938 100.695 19.8281 100.414 20.6719C100.133 21.5156 99.8359 22.3906 99.5234 23.2969C99.2109 24.1719 98.9766 24.8906 98.8203 25.4531C98.6641 26.0156 98.4766 26.6562 98.2578 27.375C98.0391 28.0625 97.8359 28.75 97.6484 29.4375C97.4922 30.0938 97.3828 30.7188 97.3203 31.3125C97.2578 31.9062 97.3047 32.3594 97.4609 32.6719C97.6172 33.0469 97.7891 33.3125 97.9766 33.4688C98.1641 33.5938 98.3672 33.6562 98.5859 33.6562C99.2109 33.6562 99.9922 33.3125 100.93 32.625C101.898 31.9375 102.867 31.125 103.836 30.1875C104.836 29.2188 105.758 28.25 106.602 27.2812C107.445 26.2812 108.07 25.4844 108.477 24.8906C108.727 24.5781 108.977 24.375 109.227 24.2812C109.508 24.1875 109.727 24.2031 109.883 24.3281C110.07 24.4531 110.164 24.6562 110.164 24.9375C110.195 25.2188 110.102 25.5469 109.883 25.9219C109.383 26.7969 108.648 27.8438 107.68 29.0625C106.711 30.25 105.68 31.4062 104.586 32.5312C103.492 33.625 102.414 34.5625 101.352 35.3438C100.32 36.125 99.4766 36.5312 98.8203 36.5625C98.2891 36.5938 97.7578 36.5 97.2266 36.2812C96.7266 36.0938 96.2578 35.8281 95.8203 35.4844C95.4141 35.1094 95.0703 34.6875 94.7891 34.2188C94.5078 33.7188 94.3516 33.2031 94.3203 32.6719C94.2266 31.8906 94.2266 30.8281 94.3203 29.4844C94.4141 28.1094 94.5859 26.7188 94.8359 25.3125C95.0859 23.875 95.3984 22.5156 95.7734 21.2344C96.1797 19.9531 96.6328 19 97.1328 18.375ZM120.336 28.5469C120.023 29.7344 119.602 30.8438 119.07 31.875C118.539 32.9062 117.898 33.7969 117.148 34.5469C116.43 35.2969 115.602 35.875 114.664 36.2812C113.758 36.7188 112.758 36.9375 111.664 36.9375C110.383 36.9375 109.367 36.6562 108.617 36.0938C107.898 35.5625 107.352 34.8906 106.977 34.0781C106.633 33.2656 106.43 32.375 106.367 31.4062C106.273 30.4375 106.227 29.5312 106.227 28.6875C106.227 28.0938 106.305 27.4375 106.461 26.7188C106.586 26 106.773 25.2656 107.023 24.5156C107.273 23.7656 107.586 23.0156 107.961 22.2656C108.367 21.5156 108.836 20.8281 109.367 20.2031C109.555 19.6719 109.836 19.2031 110.211 18.7969C110.617 18.3906 111.07 18.0625 111.57 17.8125C112.102 17.5312 112.664 17.3281 113.258 17.2031C113.852 17.0469 114.43 16.9688 114.992 16.9688C115.086 16.9688 115.164 16.9844 115.227 17.0156C115.32 17.0469 115.414 17.0781 115.508 17.1094C115.914 17.1406 116.414 17.2969 117.008 17.5781C117.633 17.8594 118.227 18.2812 118.789 18.8438C119.383 19.4062 119.883 20.125 120.289 21C120.695 21.8438 120.898 22.875 120.898 24.0938C120.898 24.3438 120.883 24.6562 120.852 25.0312C120.82 25.375 120.789 25.6719 120.758 25.9219C121.477 25.6406 122.227 25.2969 123.008 24.8906C123.789 24.4844 124.539 24.0625 125.258 23.625C126.008 23.1562 126.695 22.6875 127.32 22.2188C127.945 21.75 128.445 21.3281 128.82 20.9531C129.133 20.6719 129.398 20.5156 129.617 20.4844C129.836 20.4531 129.992 20.5156 130.086 20.6719C130.18 20.8281 130.195 21.0469 130.133 21.3281C130.07 21.6094 129.898 21.9219 129.617 22.2656C129.461 22.4531 129.055 22.8281 128.398 23.3906C127.773 23.9531 127.023 24.5625 126.148 25.2188C125.273 25.875 124.32 26.5156 123.289 27.1406C122.258 27.7656 121.273 28.2344 120.336 28.5469ZM112.414 21.4219C112.32 21.7031 112.273 22 112.273 22.3125C112.273 22.8125 112.305 23.3438 112.367 23.9062C112.43 24.4375 112.586 24.9219 112.836 25.3594C113.086 25.7969 113.477 26.1719 114.008 26.4844C114.57 26.7656 115.336 26.9062 116.305 26.9062C116.461 26.9062 116.617 26.9062 116.773 26.9062C116.93 26.875 117.086 26.8438 117.242 26.8125C117.336 26.4062 117.414 26.0469 117.477 25.7344C117.57 25.3906 117.617 25.0938 117.617 24.8438C117.68 24.25 117.68 23.6406 117.617 23.0156C117.555 22.3906 117.43 21.8281 117.242 21.3281C117.086 20.7969 116.867 20.375 116.586 20.0625C116.336 19.7188 116.023 19.5469 115.648 19.5469C115.055 19.5469 114.477 19.7188 113.914 20.0625C113.383 20.375 112.883 20.8281 112.414 21.4219ZM109.414 29.6719C109.414 30.2344 109.445 30.7969 109.508 31.3594C109.57 31.8906 109.695 32.375 109.883 32.8125C110.07 33.2188 110.32 33.5625 110.633 33.8438C110.945 34.0938 111.352 34.2188 111.852 34.2188C112.414 34.2188 112.93 34.0938 113.398 33.8438C113.867 33.5625 114.289 33.2188 114.664 32.8125C115.039 32.375 115.367 31.8906 115.648 31.3594C115.961 30.7969 116.227 30.2188 116.445 29.625C116.227 29.6562 116.008 29.6875 115.789 29.7188C115.602 29.7188 115.383 29.7188 115.133 29.7188C113.945 29.7188 112.914 29.375 112.039 28.6875C111.195 27.9688 110.539 27.0625 110.07 25.9688C109.883 26.625 109.727 27.2656 109.602 27.8906C109.477 28.5156 109.414 29.1094 109.414 29.6719ZM124.648 35.25C126.023 29.4688 127.117 24.8281 127.93 21.3281C128.773 17.8281 129.414 15.1562 129.852 13.3125C130.352 11.125 130.695 9.60938 130.883 8.76562C130.977 8.17188 131.055 7.59375 131.117 7.03125C131.18 6.53125 131.211 6.01563 131.211 5.48438C131.211 4.95312 131.164 4.46875 131.07 4.03125C131.32 3.875 131.586 3.75 131.867 3.65625C132.18 3.5625 132.477 3.48438 132.758 3.42188C133.102 3.32812 133.445 3.25 133.789 3.1875C134.133 3.125 134.445 3.09375 134.727 3.09375C134.977 3.09375 135.211 3.125 135.43 3.1875C135.648 3.21875 135.789 3.3125 135.852 3.46875C136.039 3.625 136.117 3.9375 136.086 4.40625C136.086 4.875 136.055 5.35938 135.992 5.85938C135.867 6.45312 135.727 7.09375 135.57 7.78125C135.195 9.125 134.68 11.0625 134.023 13.5938C133.461 15.75 132.695 18.6875 131.727 22.4062C130.789 26.125 129.602 30.8125 128.164 36.4688C128.008 36.625 127.82 36.7344 127.602 36.7969C127.383 36.8594 127.18 36.8906 126.992 36.8906C126.773 36.8906 126.539 36.875 126.289 36.8438C126.07 36.7812 125.852 36.6875 125.633 36.5625C125.445 36.4375 125.258 36.2656 125.07 36.0469C124.883 35.8594 124.742 35.5938 124.648 35.25ZM157.086 26.25C156.148 27.625 155.086 28.9688 153.898 30.2812C152.711 31.5625 151.445 32.7188 150.102 33.75C148.789 34.75 147.43 35.5625 146.023 36.1875C144.648 36.8125 143.305 37.125 141.992 37.125C141.305 37.125 140.555 36.9531 139.742 36.6094C138.961 36.2969 138.242 35.7969 137.586 35.1094C136.93 34.4219 136.398 33.5312 135.992 32.4375C135.617 31.3438 135.508 30.0156 135.664 28.4531C135.789 27.1719 136.18 25.8281 136.836 24.4219C137.523 22.9844 138.352 21.6719 139.32 20.4844C140.32 19.2969 141.43 18.3125 142.648 17.5312C143.898 16.75 145.148 16.3594 146.398 16.3594C147.586 16.3594 148.445 16.6562 148.977 17.25C149.508 17.8438 149.742 18.5781 149.68 19.4531C149.586 20.4219 149.305 21.3125 148.836 22.125C148.398 22.9375 147.867 23.6719 147.242 24.3281C146.617 24.9844 145.945 25.5781 145.227 26.1094C144.539 26.6406 143.883 27.125 143.258 27.5625C142.57 28.0312 141.914 28.4844 141.289 28.9219C140.664 29.3281 140.117 29.7031 139.648 30.0469C139.68 30.8281 139.82 31.4844 140.07 32.0156C140.32 32.5469 140.633 32.9844 141.008 33.3281C141.383 33.6406 141.805 33.875 142.273 34.0312C142.773 34.1562 143.273 34.2188 143.773 34.2188C144.836 34.2188 145.945 33.8906 147.102 33.2344C148.258 32.5469 149.383 31.7344 150.477 30.7969C151.602 29.8281 152.633 28.8281 153.57 27.7969C154.539 26.7656 155.336 25.875 155.961 25.125C156.18 24.875 156.398 24.7344 156.617 24.7031C156.867 24.6406 157.055 24.6719 157.18 24.7969C157.336 24.8906 157.414 25.0781 157.414 25.3594C157.414 25.6094 157.305 25.9062 157.086 26.25ZM145.086 19.0312C144.711 19.0312 144.258 19.2188 143.727 19.5938C143.227 19.9688 142.727 20.5156 142.227 21.2344C141.727 21.9219 141.258 22.7812 140.82 23.8125C140.383 24.8125 140.055 25.9688 139.836 27.2812C140.211 27 140.617 26.7188 141.055 26.4375C141.492 26.125 141.93 25.7969 142.367 25.4531C143.711 24.4219 144.648 23.5156 145.18 22.7344C145.711 21.9531 146.008 21.2812 146.07 20.7188C146.133 20.125 146.07 19.7031 145.883 19.4531C145.695 19.1719 145.43 19.0312 145.086 19.0312ZM171.008 24.1406C171.133 23.9531 171.289 23.8438 171.477 23.8125C171.695 23.75 171.867 23.7656 171.992 23.8594C172.117 23.9531 172.18 24.1094 172.18 24.3281C172.211 24.5469 172.133 24.8438 171.945 25.2188C171.32 26.4062 170.492 27.6875 169.461 29.0625C168.461 30.4375 167.398 31.7344 166.273 32.9531C165.148 34.1406 164.055 35.125 162.992 35.9062C161.93 36.6875 161.039 37.0781 160.32 37.0781C159.289 37.0781 158.43 36.875 157.742 36.4688C157.055 36.0625 156.508 35.5625 156.102 34.9688C155.727 34.375 155.461 33.7344 155.305 33.0469C155.148 32.3281 155.102 31.6719 155.164 31.0781C155.195 30.5781 155.305 29.6875 155.492 28.4062C155.68 27.0938 155.93 25.5938 156.242 23.9062C156.555 22.1875 156.898 20.3594 157.273 18.4219C157.68 16.4531 158.102 14.5625 158.539 12.75C158.008 12.8125 157.477 12.875 156.945 12.9375C156.414 13 155.93 13.0312 155.492 13.0312C154.492 13.0312 153.555 12.9219 152.68 12.7031C151.773 12.4531 151.102 12.2188 150.664 12C150.414 11.875 150.305 11.7031 150.336 11.4844C150.367 11.2344 150.461 11 150.617 10.7812C150.773 10.5312 150.977 10.3281 151.227 10.1719C151.445 9.98438 151.648 9.89062 151.836 9.89062C152.43 9.95312 153.07 10.0156 153.758 10.0781C154.445 10.1094 155.195 10.1094 156.008 10.0781C156.602 10.0469 157.164 10 157.695 9.9375C158.258 9.875 158.805 9.79688 159.336 9.70312C159.742 8.20312 160.133 6.90625 160.508 5.8125C160.914 4.6875 161.273 3.90625 161.586 3.46875C161.68 3.3125 161.883 3.1875 162.195 3.09375C162.539 2.96875 162.898 2.89062 163.273 2.85938C163.648 2.79687 164.008 2.79687 164.352 2.85938C164.695 2.89062 164.945 3 165.102 3.1875C165.258 3.4375 165.32 4.07812 165.289 5.10938C165.258 6.14062 165.086 7.45312 164.773 9.04688C166.086 9.04688 167.242 9.125 168.242 9.28125C169.273 9.40625 170.148 9.5625 170.867 9.75C171.586 9.90625 172.164 10.0781 172.602 10.2656C173.039 10.4219 173.367 10.5312 173.586 10.5938C173.805 10.6562 173.914 10.8125 173.914 11.0625C173.945 11.3125 173.898 11.5781 173.773 11.8594C173.68 12.1094 173.508 12.3281 173.258 12.5156C173.008 12.7031 172.727 12.7656 172.414 12.7031C172.102 12.6719 171.742 12.6094 171.336 12.5156C170.961 12.4219 170.492 12.3438 169.93 12.2812C169.398 12.2188 168.758 12.1562 168.008 12.0938C167.258 12.0312 166.383 12 165.383 12C165.195 12 164.977 12.0156 164.727 12.0469C164.508 12.0469 164.273 12.0469 164.023 12.0469C163.898 12.5469 163.773 13.0469 163.648 13.5469C163.555 14.0156 163.414 14.5156 163.227 15.0469C162.82 16.2969 162.352 17.6562 161.82 19.125C161.352 20.4062 160.789 21.875 160.133 23.5312C159.477 25.1875 158.742 26.9531 157.93 28.8281C157.742 30.1719 157.758 31.2031 157.977 31.9219C158.227 32.6094 158.523 33.1094 158.867 33.4219C159.273 33.7656 159.773 33.9531 160.367 33.9844C160.836 34.0469 161.398 33.8906 162.055 33.5156C162.742 33.1094 163.445 32.5781 164.164 31.9219C164.883 31.2656 165.602 30.5469 166.32 29.7656C167.07 28.9844 167.758 28.2188 168.383 27.4688C169.008 26.7188 169.555 26.0469 170.023 25.4531C170.492 24.8281 170.82 24.3906 171.008 24.1406Z"/><path fill="url(#paint0_linear)" d="M30.1016 0.703125C31.1953 0.703125 32.0859 1.01562 32.7734 1.64062C33.4922 2.23437 33.8047 3.32812 33.7109 4.92188C33.6797 5.45313 33.5547 6.45312 33.3359 7.92188C33.1172 9.35938 32.8516 11.0625 32.5391 13.0312C32.2266 15 31.8672 17.125 31.4609 19.4062C31.0859 21.6562 30.7266 23.8594 30.3828 26.0156H31.3672C31.6797 26.0156 32.0234 26 32.3984 25.9688C32.7734 25.9375 33.1641 25.8906 33.5703 25.8281C33.4141 26.2031 33.2422 26.5625 33.0547 26.9062C32.8672 27.2188 32.6797 27.5 32.4922 27.75C32.2734 28.0312 32.0547 28.2812 31.8359 28.5C31.5547 28.8438 31.2266 29.1562 30.8516 29.4375C30.4766 29.6875 30.1172 29.8906 29.7734 30.0469C29.5547 31.5781 29.3672 32.9531 29.2109 34.1719C29.0859 35.3594 29.0078 36.3438 28.9766 37.125C28.9141 38.3125 28.9453 39.4219 29.0703 40.4531C29.1641 41.3594 29.3516 42.2812 29.6328 43.2188C29.9141 44.1562 30.3672 44.9062 30.9922 45.4688L25.5547 47.25C25.1797 46.7188 24.8984 46 24.7109 45.0938C24.5547 44.2188 24.4453 43.3438 24.3828 42.4688C24.2891 41.4375 24.2734 40.375 24.3359 39.2812C24.3984 38.1875 24.5703 36.7656 24.8516 35.0156C25.1328 33.2344 25.4453 31.2969 25.7891 29.2031C25.1641 29.0156 24.4766 28.8594 23.7266 28.7344C23.0078 28.6094 22.1953 28.5469 21.2891 28.5469C20.4766 28.5469 19.6172 28.5781 18.7109 28.6406C17.8359 28.7031 16.9609 28.7812 16.0859 28.875C15.7109 30.25 15.3359 31.7031 14.9609 33.2344C14.5547 34.8906 14.1797 36.2969 13.8359 37.4531C13.5234 38.6406 13.2109 39.625 12.8984 40.4062C12.6172 41.1875 12.3203 41.8125 12.0078 42.2812C11.7266 42.75 11.4141 43.0938 11.0703 43.3125C10.6953 43.5 10.2266 43.6719 9.66406 43.8281C9.13281 43.9844 8.46094 44.1406 7.64844 44.2969C6.83594 44.4531 5.78906 44.5781 4.50781 44.6719C4.97656 44.1094 5.38281 43.5938 5.72656 43.125C6.07031 42.6562 6.41406 42.0781 6.75781 41.3906C7.10156 40.7031 7.49219 39.8125 7.92969 38.7188C8.33594 37.6562 8.86719 36.25 9.52344 34.5C9.80469 33.7812 10.0859 33 10.3672 32.1562C10.6797 31.2812 11.0078 30.3906 11.3516 29.4844C10.2266 29.6406 9.27344 29.7812 8.49219 29.9062C7.71094 30.0312 7.24219 30.125 7.08594 30.1875C6.83594 30.2188 6.63281 30.2188 6.47656 30.1875C6.07031 30.125 5.85156 29.9219 5.82031 29.5781C5.85156 29.1406 6.00781 28.8438 6.28906 28.6875C6.53906 28.5312 6.92969 28.3438 7.46094 28.125C7.71094 28 8.28906 27.7812 9.19531 27.4688C10.0703 27.125 11.1484 26.7656 12.4297 26.3906C12.8984 25.0781 13.3516 23.7812 13.7891 22.5C14.2578 21.1875 14.7109 19.9375 15.1484 18.75C15.5859 17.5625 16.0078 16.4531 16.4141 15.4219C16.8203 14.3594 17.1953 13.4531 17.5391 12.7031C18.0703 11.5469 18.7422 10.2812 19.5547 8.90625C20.3984 7.5 21.3516 6.1875 22.4141 4.96875C23.5078 3.75 24.6953 2.73438 25.9766 1.92188C27.2891 1.10937 28.6641 0.703125 30.1016 0.703125ZM29.5859 10.4531C29.9297 9.04688 30.1641 7.89062 30.2891 6.98438C30.4141 6.07812 30.4609 5.375 30.4297 4.875C30.3984 4.34375 30.2891 3.98438 30.1016 3.79688C29.9453 3.57813 29.7422 3.46875 29.4922 3.46875C29.0859 3.46875 28.5859 3.625 27.9922 3.9375C27.3984 4.25 26.7734 4.70313 26.1172 5.29688C25.4609 5.85938 24.8047 6.57813 24.1484 7.45312C23.5234 8.29688 22.9609 9.26562 22.4609 10.3594C21.7422 11.9844 20.9297 13.9844 20.0234 16.3594C19.1172 18.7031 18.1328 21.7031 17.0703 25.3594C17.6953 25.2656 18.3047 25.1875 18.8984 25.125C19.5234 25.0625 20.1328 25.0312 20.7266 25.0312C21.7891 25.0312 22.8047 25.0781 23.7734 25.1719C24.7422 25.2344 25.6328 25.3125 26.4453 25.4062C26.7266 23.9062 27.0078 22.4375 27.2891 21C27.6016 19.5312 27.8984 18.1406 28.1797 16.8281C28.4609 15.5156 28.7109 14.3125 28.9297 13.2188C29.1797 12.125 29.3984 11.2031 29.5859 10.4531ZM58.1797 33.8438C58.1797 33.1875 58.2422 32.4375 58.3672 31.5938C58.5234 30.75 58.7109 29.8906 58.9297 29.0156C59.1484 28.1094 59.3672 27.2344 59.5859 26.3906C59.8047 25.5469 59.9922 24.7969 60.1484 24.1406C60.3359 23.3281 60.3203 22.7031 60.1016 22.2656C59.8828 21.8281 59.5078 21.6094 58.9766 21.6094C58.7266 21.6094 58.2266 21.8281 57.4766 22.2656C56.7578 22.7031 55.9609 23.4688 55.0859 24.5625C54.2422 25.625 53.3984 27.0781 52.5547 28.9219C51.7422 30.7344 51.1016 33.0469 50.6328 35.8594C50.0391 36.1719 49.4766 36.375 48.9453 36.4688C48.6641 36.5312 48.4141 36.5781 48.1953 36.6094C47.5703 36.6406 47.1641 36.5312 46.9766 36.2812C46.7891 36.0625 46.8203 35.5 47.0703 34.5938C47.1953 34.1562 47.4141 33.4531 47.7266 32.4844C48.0703 31.5156 48.3984 30.4688 48.7109 29.3438C49.0234 28.1875 49.2891 27.0469 49.5078 25.9219C49.7578 24.7656 49.8828 23.7656 49.8828 22.9219C49.8828 22.3281 49.7734 21.9219 49.5547 21.7031C49.3672 21.4844 49.0859 21.375 48.7109 21.375C48.4297 21.375 47.9609 21.5312 47.3047 21.8438C46.6484 22.1562 45.9141 22.7656 45.1016 23.6719C44.2891 24.5781 43.4766 25.8438 42.6641 27.4688C41.8828 29.0625 41.2109 31.1406 40.6484 33.7031V33.6094C40.5859 33.8594 40.5234 34.1094 40.4609 34.3594C40.3984 34.5781 40.3516 34.8125 40.3203 35.0625C40.2891 35.3125 40.2422 35.5469 40.1797 35.7656L37.8359 36.7969C37.6797 36.8594 37.4766 36.9062 37.2266 36.9375C37.0078 36.9688 36.7891 36.9219 36.5703 36.7969C36.3828 36.7031 36.2422 36.4844 36.1484 36.1406C36.0547 35.7969 36.0859 35.2812 36.2422 34.5938L39.1953 22.3594C39.2891 21.9531 39.3672 21.5625 39.4297 21.1875C39.4922 20.8438 39.5234 20.5156 39.5234 20.2031C39.5547 19.8594 39.5391 19.5781 39.4766 19.3594C40.0078 19.1094 40.4766 18.9219 40.8828 18.7969C41.2891 18.6719 41.6172 18.5781 41.8672 18.5156C42.1797 18.4219 42.4453 18.375 42.6641 18.375C43.6641 18.375 43.9922 19.2344 43.6484 20.9531C43.5234 21.4531 43.3359 22.1875 43.0859 23.1562C43.6797 22.4062 44.3047 21.7031 44.9609 21.0469C45.6484 20.3594 46.3359 19.75 47.0234 19.2188C47.7109 18.6875 48.3984 18.2656 49.0859 17.9531C49.8047 17.6406 50.5078 17.4844 51.1953 17.4844C51.7266 17.4844 52.1641 17.6406 52.5078 17.9531C52.8828 18.2656 53.1641 18.6875 53.3516 19.2188C53.5703 19.7188 53.6953 20.3281 53.7266 21.0469C53.7578 21.7344 53.7266 22.4531 53.6328 23.2031C54.1328 22.5469 54.6797 21.8906 55.2734 21.2344C55.8984 20.5469 56.5391 19.9375 57.1953 19.4062C57.8828 18.875 58.5859 18.4375 59.3047 18.0938C60.0234 17.75 60.7422 17.5781 61.4609 17.5781C62.3047 17.5781 62.9453 17.8281 63.3828 18.3281C63.8516 18.8281 64.1641 19.4688 64.3203 20.25C64.5078 21.0312 64.5547 21.875 64.4609 22.7812C64.3984 23.6875 64.2734 24.5625 64.0859 25.4062L62.4922 31.7344C62.1484 33.2969 62.4766 34.0781 63.4766 34.0781C64.2578 34.0781 65.1172 33.7031 66.0547 32.9531C66.9922 32.2031 67.8984 31.3125 68.7734 30.2812C69.6797 29.25 70.5234 28.1875 71.3047 27.0938C72.0859 26 72.7422 25.125 73.2734 24.4688C73.4609 24.25 73.6484 24.125 73.8359 24.0938C74.0547 24.0625 74.2266 24.1094 74.3516 24.2344C74.5078 24.3281 74.5859 24.5 74.5859 24.75C74.6172 25 74.5391 25.3125 74.3516 25.6875C73.7266 26.7812 72.9609 28 72.0547 29.3438C71.1484 30.6562 70.1484 31.8906 69.0547 33.0469C67.9922 34.2031 66.8516 35.1719 65.6328 35.9531C64.4141 36.7344 63.1484 37.125 61.8359 37.125C61.3984 37.125 60.9609 37.0781 60.5234 36.9844C60.1172 36.8906 59.7266 36.7188 59.3516 36.4688C59.0078 36.2188 58.7266 35.8906 58.5078 35.4844C58.2891 35.0469 58.1797 34.5 58.1797 33.8438ZM76.6016 36.75C75.4141 36.75 74.4453 36.5625 73.6953 36.1875C72.9453 35.8125 72.3516 35.3594 71.9141 34.8281C71.5078 34.2656 71.2109 33.6719 71.0234 33.0469C70.8672 32.3906 70.7891 31.7969 70.7891 31.2656C70.7891 30.3281 70.8672 29.3438 71.0234 28.3125C71.1797 27.25 71.3672 26.2812 71.5859 25.4062C71.8047 24.5 71.9922 23.7344 72.1484 23.1094C72.3359 22.4844 72.4609 22.0938 72.5234 21.9375C72.8047 21.0312 73.1641 20.25 73.6016 19.5938C74.0703 18.9062 74.7109 18.4375 75.5234 18.1875C75.8359 18.125 76.1641 18.0625 76.5078 18C76.7891 17.9688 77.0703 17.9531 77.3516 17.9531C77.6641 17.9531 77.9453 18 78.1953 18.0938C77.3516 20.25 76.6797 22.0469 76.1797 23.4844C75.7109 24.9219 75.3516 26.0938 75.1016 27C74.8203 28.0312 74.6484 28.8594 74.5859 29.4844C74.4297 30.8906 74.5547 31.9531 74.9609 32.6719C75.3672 33.3906 76.1953 33.75 77.4453 33.75C78.2578 33.75 79.0391 33.4531 79.7891 32.8594C80.5391 32.2344 81.2266 31.4375 81.8516 30.4688C81.7578 29.9688 81.7109 29.4531 81.7109 28.9219C81.7109 27.9219 81.7891 26.9531 81.9453 26.0156C82.1328 25.0469 82.3359 24.1562 82.5547 23.3438C82.8047 22.5 83.0547 21.75 83.3047 21.0938C83.5859 20.4375 83.8203 19.9219 84.0078 19.5469C84.3516 18.7969 84.6641 18.3438 84.9453 18.1875C85.2266 18 85.6797 17.8906 86.3047 17.8594C86.5547 17.8281 86.7578 17.8281 86.9141 17.8594C87.1016 17.8594 87.2578 17.875 87.3828 17.9062C87.7578 18 87.9453 18.1875 87.9453 18.4688C87.9453 18.9688 87.9141 19.7188 87.8516 20.7188C87.7891 21.7188 87.6016 22.75 87.2891 23.8125C87.0703 24.6875 86.8516 25.4375 86.6328 26.0625C86.4453 26.6562 86.2578 27.1719 86.0703 27.6094C85.8828 28.0156 85.6953 28.3594 85.5078 28.6406C85.3203 28.8906 85.1484 29.125 84.9922 29.3438C85.0547 30.2812 85.1328 31.0312 85.2266 31.5938C85.3203 32.1562 85.4297 32.5938 85.5547 32.9062C85.7109 33.1875 85.8828 33.3906 86.0703 33.5156C86.2891 33.6094 86.5234 33.6562 86.7734 33.6562C87.2109 33.6562 87.7266 33.4531 88.3203 33.0469C88.9141 32.6094 89.5234 32.0781 90.1484 31.4531C90.8047 30.7969 91.4453 30.0938 92.0703 29.3438C92.7266 28.5625 93.3203 27.8281 93.8516 27.1406C94.3828 26.4531 94.8359 25.8594 95.2109 25.3594C95.5859 24.8281 95.8203 24.5 95.9141 24.375C96.1328 24.0938 96.3359 23.9219 96.5234 23.8594C96.7422 23.7969 96.9141 23.8281 97.0391 23.9531C97.1641 24.0469 97.2266 24.2188 97.2266 24.4688C97.2578 24.6875 97.1953 24.9375 97.0391 25.2188C96.4141 26.4062 95.6328 27.6719 94.6953 29.0156C93.7891 30.3281 92.8047 31.5469 91.7422 32.6719C90.7109 33.7969 89.6641 34.7344 88.6016 35.4844C87.5391 36.2344 86.5391 36.6094 85.6016 36.6094C84.7578 36.6094 84.0859 36.3281 83.5859 35.7656C83.1172 35.1719 82.7109 34.3281 82.3672 33.2344C81.6484 34.3594 80.8047 35.2344 79.8359 35.8594C78.8672 36.4531 77.7891 36.75 76.6016 36.75ZM103.602 8.39062C103.508 8.73438 103.32 9.07812 103.039 9.42188C102.789 9.73438 102.492 10 102.148 10.2188C101.836 10.4062 101.508 10.5312 101.164 10.5938C100.82 10.6562 100.539 10.5938 100.32 10.4062C99.6641 9.90625 99.3203 9.375 99.2891 8.8125C99.2578 8.21875 99.3984 7.67188 99.7109 7.17188C100.023 6.64062 100.414 6.20313 100.883 5.85938C101.352 5.48438 101.758 5.26563 102.102 5.20312C102.445 5.14062 102.727 5.21875 102.945 5.4375C103.195 5.625 103.383 5.89062 103.508 6.23438C103.633 6.54687 103.695 6.90625 103.695 7.3125C103.727 7.71875 103.695 8.07812 103.602 8.39062ZM97.1328 18.375C97.2891 18.1875 97.5859 18.0312 98.0234 17.9062C98.4609 17.7812 98.9141 17.6875 99.3828 17.625C99.8516 17.5312 100.273 17.4844 100.648 17.4844C101.055 17.4531 101.289 17.4531 101.352 17.4844C101.383 17.5156 101.305 17.8438 101.117 18.4688C100.93 19.0938 100.695 19.8281 100.414 20.6719C100.133 21.5156 99.8359 22.3906 99.5234 23.2969C99.2109 24.1719 98.9766 24.8906 98.8203 25.4531C98.6641 26.0156 98.4766 26.6562 98.2578 27.375C98.0391 28.0625 97.8359 28.75 97.6484 29.4375C97.4922 30.0938 97.3828 30.7188 97.3203 31.3125C97.2578 31.9062 97.3047 32.3594 97.4609 32.6719C97.6172 33.0469 97.7891 33.3125 97.9766 33.4688C98.1641 33.5938 98.3672 33.6562 98.5859 33.6562C99.2109 33.6562 99.9922 33.3125 100.93 32.625C101.898 31.9375 102.867 31.125 103.836 30.1875C104.836 29.2188 105.758 28.25 106.602 27.2812C107.445 26.2812 108.07 25.4844 108.477 24.8906C108.727 24.5781 108.977 24.375 109.227 24.2812C109.508 24.1875 109.727 24.2031 109.883 24.3281C110.07 24.4531 110.164 24.6562 110.164 24.9375C110.195 25.2188 110.102 25.5469 109.883 25.9219C109.383 26.7969 108.648 27.8438 107.68 29.0625C106.711 30.25 105.68 31.4062 104.586 32.5312C103.492 33.625 102.414 34.5625 101.352 35.3438C100.32 36.125 99.4766 36.5312 98.8203 36.5625C98.2891 36.5938 97.7578 36.5 97.2266 36.2812C96.7266 36.0938 96.2578 35.8281 95.8203 35.4844C95.4141 35.1094 95.0703 34.6875 94.7891 34.2188C94.5078 33.7188 94.3516 33.2031 94.3203 32.6719C94.2266 31.8906 94.2266 30.8281 94.3203 29.4844C94.4141 28.1094 94.5859 26.7188 94.8359 25.3125C95.0859 23.875 95.3984 22.5156 95.7734 21.2344C96.1797 19.9531 96.6328 19 97.1328 18.375ZM120.336 28.5469C120.023 29.7344 119.602 30.8438 119.07 31.875C118.539 32.9062 117.898 33.7969 117.148 34.5469C116.43 35.2969 115.602 35.875 114.664 36.2812C113.758 36.7188 112.758 36.9375 111.664 36.9375C110.383 36.9375 109.367 36.6562 108.617 36.0938C107.898 35.5625 107.352 34.8906 106.977 34.0781C106.633 33.2656 106.43 32.375 106.367 31.4062C106.273 30.4375 106.227 29.5312 106.227 28.6875C106.227 28.0938 106.305 27.4375 106.461 26.7188C106.586 26 106.773 25.2656 107.023 24.5156C107.273 23.7656 107.586 23.0156 107.961 22.2656C108.367 21.5156 108.836 20.8281 109.367 20.2031C109.555 19.6719 109.836 19.2031 110.211 18.7969C110.617 18.3906 111.07 18.0625 111.57 17.8125C112.102 17.5312 112.664 17.3281 113.258 17.2031C113.852 17.0469 114.43 16.9688 114.992 16.9688C115.086 16.9688 115.164 16.9844 115.227 17.0156C115.32 17.0469 115.414 17.0781 115.508 17.1094C115.914 17.1406 116.414 17.2969 117.008 17.5781C117.633 17.8594 118.227 18.2812 118.789 18.8438C119.383 19.4062 119.883 20.125 120.289 21C120.695 21.8438 120.898 22.875 120.898 24.0938C120.898 24.3438 120.883 24.6562 120.852 25.0312C120.82 25.375 120.789 25.6719 120.758 25.9219C121.477 25.6406 122.227 25.2969 123.008 24.8906C123.789 24.4844 124.539 24.0625 125.258 23.625C126.008 23.1562 126.695 22.6875 127.32 22.2188C127.945 21.75 128.445 21.3281 128.82 20.9531C129.133 20.6719 129.398 20.5156 129.617 20.4844C129.836 20.4531 129.992 20.5156 130.086 20.6719C130.18 20.8281 130.195 21.0469 130.133 21.3281C130.07 21.6094 129.898 21.9219 129.617 22.2656C129.461 22.4531 129.055 22.8281 128.398 23.3906C127.773 23.9531 127.023 24.5625 126.148 25.2188C125.273 25.875 124.32 26.5156 123.289 27.1406C122.258 27.7656 121.273 28.2344 120.336 28.5469ZM112.414 21.4219C112.32 21.7031 112.273 22 112.273 22.3125C112.273 22.8125 112.305 23.3438 112.367 23.9062C112.43 24.4375 112.586 24.9219 112.836 25.3594C113.086 25.7969 113.477 26.1719 114.008 26.4844C114.57 26.7656 115.336 26.9062 116.305 26.9062C116.461 26.9062 116.617 26.9062 116.773 26.9062C116.93 26.875 117.086 26.8438 117.242 26.8125C117.336 26.4062 117.414 26.0469 117.477 25.7344C117.57 25.3906 117.617 25.0938 117.617 24.8438C117.68 24.25 117.68 23.6406 117.617 23.0156C117.555 22.3906 117.43 21.8281 117.242 21.3281C117.086 20.7969 116.867 20.375 116.586 20.0625C116.336 19.7188 116.023 19.5469 115.648 19.5469C115.055 19.5469 114.477 19.7188 113.914 20.0625C113.383 20.375 112.883 20.8281 112.414 21.4219ZM109.414 29.6719C109.414 30.2344 109.445 30.7969 109.508 31.3594C109.57 31.8906 109.695 32.375 109.883 32.8125C110.07 33.2188 110.32 33.5625 110.633 33.8438C110.945 34.0938 111.352 34.2188 111.852 34.2188C112.414 34.2188 112.93 34.0938 113.398 33.8438C113.867 33.5625 114.289 33.2188 114.664 32.8125C115.039 32.375 115.367 31.8906 115.648 31.3594C115.961 30.7969 116.227 30.2188 116.445 29.625C116.227 29.6562 116.008 29.6875 115.789 29.7188C115.602 29.7188 115.383 29.7188 115.133 29.7188C113.945 29.7188 112.914 29.375 112.039 28.6875C111.195 27.9688 110.539 27.0625 110.07 25.9688C109.883 26.625 109.727 27.2656 109.602 27.8906C109.477 28.5156 109.414 29.1094 109.414 29.6719ZM124.648 35.25C126.023 29.4688 127.117 24.8281 127.93 21.3281C128.773 17.8281 129.414 15.1562 129.852 13.3125C130.352 11.125 130.695 9.60938 130.883 8.76562C130.977 8.17188 131.055 7.59375 131.117 7.03125C131.18 6.53125 131.211 6.01563 131.211 5.48438C131.211 4.95312 131.164 4.46875 131.07 4.03125C131.32 3.875 131.586 3.75 131.867 3.65625C132.18 3.5625 132.477 3.48438 132.758 3.42188C133.102 3.32812 133.445 3.25 133.789 3.1875C134.133 3.125 134.445 3.09375 134.727 3.09375C134.977 3.09375 135.211 3.125 135.43 3.1875C135.648 3.21875 135.789 3.3125 135.852 3.46875C136.039 3.625 136.117 3.9375 136.086 4.40625C136.086 4.875 136.055 5.35938 135.992 5.85938C135.867 6.45312 135.727 7.09375 135.57 7.78125C135.195 9.125 134.68 11.0625 134.023 13.5938C133.461 15.75 132.695 18.6875 131.727 22.4062C130.789 26.125 129.602 30.8125 128.164 36.4688C128.008 36.625 127.82 36.7344 127.602 36.7969C127.383 36.8594 127.18 36.8906 126.992 36.8906C126.773 36.8906 126.539 36.875 126.289 36.8438C126.07 36.7812 125.852 36.6875 125.633 36.5625C125.445 36.4375 125.258 36.2656 125.07 36.0469C124.883 35.8594 124.742 35.5938 124.648 35.25ZM157.086 26.25C156.148 27.625 155.086 28.9688 153.898 30.2812C152.711 31.5625 151.445 32.7188 150.102 33.75C148.789 34.75 147.43 35.5625 146.023 36.1875C144.648 36.8125 143.305 37.125 141.992 37.125C141.305 37.125 140.555 36.9531 139.742 36.6094C138.961 36.2969 138.242 35.7969 137.586 35.1094C136.93 34.4219 136.398 33.5312 135.992 32.4375C135.617 31.3438 135.508 30.0156 135.664 28.4531C135.789 27.1719 136.18 25.8281 136.836 24.4219C137.523 22.9844 138.352 21.6719 139.32 20.4844C140.32 19.2969 141.43 18.3125 142.648 17.5312C143.898 16.75 145.148 16.3594 146.398 16.3594C147.586 16.3594 148.445 16.6562 148.977 17.25C149.508 17.8438 149.742 18.5781 149.68 19.4531C149.586 20.4219 149.305 21.3125 148.836 22.125C148.398 22.9375 147.867 23.6719 147.242 24.3281C146.617 24.9844 145.945 25.5781 145.227 26.1094C144.539 26.6406 143.883 27.125 143.258 27.5625C142.57 28.0312 141.914 28.4844 141.289 28.9219C140.664 29.3281 140.117 29.7031 139.648 30.0469C139.68 30.8281 139.82 31.4844 140.07 32.0156C140.32 32.5469 140.633 32.9844 141.008 33.3281C141.383 33.6406 141.805 33.875 142.273 34.0312C142.773 34.1562 143.273 34.2188 143.773 34.2188C144.836 34.2188 145.945 33.8906 147.102 33.2344C148.258 32.5469 149.383 31.7344 150.477 30.7969C151.602 29.8281 152.633 28.8281 153.57 27.7969C154.539 26.7656 155.336 25.875 155.961 25.125C156.18 24.875 156.398 24.7344 156.617 24.7031C156.867 24.6406 157.055 24.6719 157.18 24.7969C157.336 24.8906 157.414 25.0781 157.414 25.3594C157.414 25.6094 157.305 25.9062 157.086 26.25ZM145.086 19.0312C144.711 19.0312 144.258 19.2188 143.727 19.5938C143.227 19.9688 142.727 20.5156 142.227 21.2344C141.727 21.9219 141.258 22.7812 140.82 23.8125C140.383 24.8125 140.055 25.9688 139.836 27.2812C140.211 27 140.617 26.7188 141.055 26.4375C141.492 26.125 141.93 25.7969 142.367 25.4531C143.711 24.4219 144.648 23.5156 145.18 22.7344C145.711 21.9531 146.008 21.2812 146.07 20.7188C146.133 20.125 146.07 19.7031 145.883 19.4531C145.695 19.1719 145.43 19.0312 145.086 19.0312ZM171.008 24.1406C171.133 23.9531 171.289 23.8438 171.477 23.8125C171.695 23.75 171.867 23.7656 171.992 23.8594C172.117 23.9531 172.18 24.1094 172.18 24.3281C172.211 24.5469 172.133 24.8438 171.945 25.2188C171.32 26.4062 170.492 27.6875 169.461 29.0625C168.461 30.4375 167.398 31.7344 166.273 32.9531C165.148 34.1406 164.055 35.125 162.992 35.9062C161.93 36.6875 161.039 37.0781 160.32 37.0781C159.289 37.0781 158.43 36.875 157.742 36.4688C157.055 36.0625 156.508 35.5625 156.102 34.9688C155.727 34.375 155.461 33.7344 155.305 33.0469C155.148 32.3281 155.102 31.6719 155.164 31.0781C155.195 30.5781 155.305 29.6875 155.492 28.4062C155.68 27.0938 155.93 25.5938 156.242 23.9062C156.555 22.1875 156.898 20.3594 157.273 18.4219C157.68 16.4531 158.102 14.5625 158.539 12.75C158.008 12.8125 157.477 12.875 156.945 12.9375C156.414 13 155.93 13.0312 155.492 13.0312C154.492 13.0312 153.555 12.9219 152.68 12.7031C151.773 12.4531 151.102 12.2188 150.664 12C150.414 11.875 150.305 11.7031 150.336 11.4844C150.367 11.2344 150.461 11 150.617 10.7812C150.773 10.5312 150.977 10.3281 151.227 10.1719C151.445 9.98438 151.648 9.89062 151.836 9.89062C152.43 9.95312 153.07 10.0156 153.758 10.0781C154.445 10.1094 155.195 10.1094 156.008 10.0781C156.602 10.0469 157.164 10 157.695 9.9375C158.258 9.875 158.805 9.79688 159.336 9.70312C159.742 8.20312 160.133 6.90625 160.508 5.8125C160.914 4.6875 161.273 3.90625 161.586 3.46875C161.68 3.3125 161.883 3.1875 162.195 3.09375C162.539 2.96875 162.898 2.89062 163.273 2.85938C163.648 2.79687 164.008 2.79687 164.352 2.85938C164.695 2.89062 164.945 3 165.102 3.1875C165.258 3.4375 165.32 4.07812 165.289 5.10938C165.258 6.14062 165.086 7.45312 164.773 9.04688C166.086 9.04688 167.242 9.125 168.242 9.28125C169.273 9.40625 170.148 9.5625 170.867 9.75C171.586 9.90625 172.164 10.0781 172.602 10.2656C173.039 10.4219 173.367 10.5312 173.586 10.5938C173.805 10.6562 173.914 10.8125 173.914 11.0625C173.945 11.3125 173.898 11.5781 173.773 11.8594C173.68 12.1094 173.508 12.3281 173.258 12.5156C173.008 12.7031 172.727 12.7656 172.414 12.7031C172.102 12.6719 171.742 12.6094 171.336 12.5156C170.961 12.4219 170.492 12.3438 169.93 12.2812C169.398 12.2188 168.758 12.1562 168.008 12.0938C167.258 12.0312 166.383 12 165.383 12C165.195 12 164.977 12.0156 164.727 12.0469C164.508 12.0469 164.273 12.0469 164.023 12.0469C163.898 12.5469 163.773 13.0469 163.648 13.5469C163.555 14.0156 163.414 14.5156 163.227 15.0469C162.82 16.2969 162.352 17.6562 161.82 19.125C161.352 20.4062 160.789 21.875 160.133 23.5312C159.477 25.1875 158.742 26.9531 157.93 28.8281C157.742 30.1719 157.758 31.2031 157.977 31.9219C158.227 32.6094 158.523 33.1094 158.867 33.4219C159.273 33.7656 159.773 33.9531 160.367 33.9844C160.836 34.0469 161.398 33.8906 162.055 33.5156C162.742 33.1094 163.445 32.5781 164.164 31.9219C164.883 31.2656 165.602 30.5469 166.32 29.7656C167.07 28.9844 167.758 28.2188 168.383 27.4688C169.008 26.7188 169.555 26.0469 170.023 25.4531C170.492 24.8281 170.82 24.3906 171.008 24.1406Z"/></g><defs><filter id="filter0_d" width="177.416" height="54.547" x=".508" y=".703" color-interpolation-filters="sRGB" filterUnits="userSpaceOnUse"><feFlood flood-opacity="0" result="BackgroundImageFix"/><feColorMatrix in="SourceAlpha" type="matrix" values="0 0 0 0 0 0 0 0 0 0 0 0 0 0 0 0 0 0 127 0"/><feOffset dy="4"/><feGaussianBlur stdDeviation="2"/><feColorMatrix type="matrix" values="0 0 0 0 0 0 0 0 0 0 0 0 0 0 0 0 0 0 0.25 0"/><feBlend in2="BackgroundImageFix" mode="normal" result="effect1_dropShadow"/><feBlend in="SourceGraphic" in2="effect1_dropShadow" mode="normal" result="shape"/></filter><linearGradient id="paint0_linear" x1="89" x2="89" y1="-9" y2="25.5" gradientUnits="userSpaceOnUse"><stop stop-color="#AD00FF"/><stop offset="1" stop-color="#AC0BF8" stop-opacity=".42"/></linearGradient></defs></svg>